<svg xmlns="http://www.w3.org/2000/svg" xmlns:xlink="http://www.w3.org/1999/xlink" width="1024" zoomAndPan="magnify" viewBox="0 0 768 767.999994" height="1024" preserveAspectRatio="xMidYMid meet" version="1.0"><defs><g/><clipPath id="27cbce30d6"><path d="M 0 167.035156 L 767.996094 167.035156 L 767.996094 592.675781 L 0 592.675781 Z M 0 167.035156 " clip-rule="nonzero"/></clipPath><clipPath id="c901ec5fa5"><path d="M 0 198 L 691 198 L 691 592.90625 L 0 592.90625 Z M 0 198 " clip-rule="nonzero"/></clipPath></defs><rect x="-76.8" width="921.6" fill="#ffffff" y="-76.799999" height="921.599993" fill-opacity="1"/><rect x="-76.8" width="921.6" fill="#f6f4f0" y="-76.799999" height="921.599993" fill-opacity="1"/><g clip-path="url(#27cbce30d6)"><path fill="#ffb5b1" d="M 543.332031 517.734375 L 543.332031 539.71875 C 543.332031 551.832031 533.46875 561.691406 521.347656 561.691406 L 510.109375 561.691406 C 497.988281 561.691406 488.132812 551.832031 488.132812 539.71875 C 488.132812 527.59375 497.988281 517.734375 510.109375 517.734375 Z M 270.824219 167.503906 C 259.316406 170.207031 252.46875 177.996094 248.960938 183.449219 C 246.429688 187.378906 242.613281 190.300781 238.148438 191.695312 C 235.578125 192.5 232.398438 193.457031 228.644531 194.542969 C 197.378906 203.550781 156.175781 233.480469 129.132812 245.375 C 102.097656 257.273438 76.136719 242.136719 76.136719 242.136719 L 35.007812 217.597656 C 13.621094 204.847656 -6.167969 230.753906 1.796875 250.824219 C 4.554688 257.777344 9.609375 263.585938 15.121094 268.652344 C 23.628906 276.476562 33.5 282.949219 44.125 287.519531 C 54.351562 291.914062 65.523438 292.644531 75.945312 296.425781 C 83.910156 299.316406 89.078125 307.40625 87.847656 316.308594 C 86.234375 328.003906 74.773438 334.609375 63.558594 330.929688 C 57.804688 329.046875 52.417969 327.613281 48.738281 327.355469 L 36.960938 326.53125 C 25.488281 325.734375 15.066406 334.316406 14.347656 346.640625 C 13.675781 357.9375 22.605469 367.210938 33.824219 368.707031 C 35.347656 368.90625 36.835938 369.246094 38.28125 369.761719 C 53.421875 375.175781 94.519531 415.1875 112.910156 438.984375 C 124.425781 453.890625 145.695312 450.125 159.984375 445.230469 C 168.726562 442.242188 178.347656 444.964844 184.386719 451.960938 C 200.59375 470.75 216.980469 477.984375 226.742188 480.757812 C 230.054688 481.703125 231.378906 485.484375 229.550781 488.402344 C 226.332031 493.554688 225.480469 500.234375 225.488281 505.859375 C 225.5 512.136719 220.371094 517.1875 214.09375 517.117188 L 199.515625 516.941406 C 195.15625 516.886719 190.8125 517.429688 186.601562 518.542969 L 157.230469 526.339844 C 146.964844 529.0625 139.6875 538.175781 139.308594 548.789062 C 138.722656 565.128906 154.28125 577.511719 169.957031 572.867188 C 178.550781 570.320312 187.308594 568.742188 194.03125 569.863281 C 213.5 573.101562 346.539062 602.3125 394.128906 552.550781 C 407.257812 538.824219 414.871094 523.121094 419.019531 507.578125 C 423.65625 490.160156 423.835938 472.386719 420.210938 455.519531 L 521.347656 455.519531 C 533.46875 455.519531 543.332031 465.378906 543.332031 477.5 L 543.332031 486.746094 L 510.109375 486.746094 C 480.902344 486.746094 457.140625 510.503906 457.140625 539.71875 C 457.140625 568.921875 480.902344 592.679688 510.109375 592.679688 L 521.347656 592.679688 C 550.554688 592.679688 574.316406 568.921875 574.316406 539.71875 L 574.316406 517.734375 L 752.503906 517.734375 C 761.058594 517.734375 767.996094 510.796875 767.996094 502.242188 C 767.996094 493.679688 761.058594 486.746094 752.503906 486.746094 L 574.316406 486.746094 L 574.316406 477.5 C 574.316406 448.296875 550.554688 424.535156 521.347656 424.535156 L 408.675781 424.535156 C 399.566406 407.84375 386.304688 393.242188 369.699219 382.410156 C 368.101562 381.367188 366.507812 380.394531 364.929688 379.5 C 340.046875 365.4375 292.453125 351.378906 271.902344 343.808594 C 251.355469 336.234375 252.441406 308.113281 252.441406 308.113281 L 281.640625 292.96875 C 281.640625 292.96875 288.855469 301.664062 297.507812 308.15625 C 306.15625 314.640625 322.25 311.28125 329.820312 301.542969 C 337.386719 291.8125 315.171875 289.722656 307.597656 277.824219 C 300.027344 265.925781 323.820312 265.925781 335.71875 268.09375 C 347.617188 270.257812 363.84375 269.171875 370.332031 248.621094 C 376.820312 228.074219 355.191406 242.136719 335.71875 215.09375 C 316.25 188.050781 293.539062 190.21875 293.539062 190.21875 C 293.539062 190.21875 289.214844 163.175781 270.824219 167.503906 " fill-opacity="1" fill-rule="nonzero"/></g><g clip-path="url(#c901ec5fa5)"><path fill="#f04b16" d="M 231.566406 352.003906 C 230.617188 342.144531 215.121094 342.078125 216.074219 352.003906 C 216.878906 360.433594 218.226562 370.378906 213.972656 378.144531 C 210.765625 384.011719 203.910156 388.183594 197.894531 383.574219 C 192.636719 379.554688 191.199219 372.578125 189.007812 366.769531 C 186.921875 361.230469 183.441406 357.113281 178.230469 354.292969 C 173.984375 351.992188 164.9375 350.863281 165.054688 344.921875 C 165.210938 337.339844 175.410156 335.539062 181.074219 335.3125 C 193.5625 334.8125 215.691406 337.03125 216.175781 353.648438 C 216.46875 363.613281 231.960938 363.617188 231.667969 353.648438 C 230.894531 327.144531 202.136719 318.460938 179.875 319.859375 C 168.96875 320.542969 158.03125 324.292969 152.445312 334.375 C 147.6875 342.964844 148.699219 353.765625 156.234375 360.359375 C 160.164062 363.796875 164.976562 364.9375 169.53125 367.21875 C 174.597656 369.757812 174.882812 374 176.796875 378.851562 C 180.5 388.253906 187.070312 397.589844 197.316406 400.410156 C 208.21875 403.410156 219.183594 397.714844 225.480469 388.871094 C 233.136719 378.125 232.765625 364.554688 231.566406 352.003906 Z M 681.234375 486.746094 L 673.09375 486.746094 C 662.808594 503.371094 644.703125 516.300781 625.347656 504.035156 C 618.429688 499.652344 613.507812 493.253906 608.648438 486.746094 L 589.71875 486.746094 C 597.53125 494.660156 602.863281 504.972656 611.238281 512.527344 C 613.460938 514.523438 615.84375 516.257812 618.34375 517.734375 L 664.023438 517.734375 C 675.09375 511.613281 683.628906 501.414062 689.433594 489.734375 C 689.511719 489.578125 689.582031 489.421875 689.660156 489.265625 L 690.582031 486.746094 M 571.351562 557.027344 C 573.078125 552.046875 574.082031 546.746094 574.238281 541.21875 C 564.546875 536.777344 553.921875 535.128906 543.332031 536.800781 L 543.332031 539.71875 C 543.332031 545.195312 541.296875 550.207031 537.960938 554.058594 C 549.289062 549.625 561.222656 551.167969 571.351562 557.027344 Z M 484.699219 586.164062 C 490.632812 589.429688 497.257812 591.570312 504.289062 592.34375 C 506.792969 589.890625 509.125 586.96875 511.257812 583.523438 C 516.296875 575.359375 520.117188 567.152344 526.8125 560.976562 C 525.0625 561.425781 523.238281 561.691406 521.347656 561.691406 L 510.109375 561.691406 C 508.765625 561.691406 507.464844 561.550781 506.191406 561.324219 C 505.460938 562.417969 504.75 563.527344 504.074219 564.667969 C 501.121094 569.675781 498.855469 575.550781 494.9375 579.914062 C 491.785156 583.417969 488.34375 585.34375 484.699219 586.164062 Z M 477.667969 455.519531 L 498.824219 455.519531 C 494.546875 452.238281 490.839844 447 487.527344 441.566406 C 483.464844 434.886719 478.898438 429.214844 473.613281 424.535156 L 441.972656 424.535156 C 442.867188 425.648438 444.171875 426.535156 445.933594 426.996094 C 463.011719 431.472656 468.90625 443.039062 477.667969 455.519531 Z M 520.980469 452.425781 C 519.65625 453.671875 518.382812 454.65625 517.128906 455.519531 L 521.347656 455.519531 C 526.640625 455.519531 531.507812 457.40625 535.304688 460.53125 C 541.941406 452.617188 546.53125 442.488281 549.042969 432.4375 C 544.65625 429.734375 539.863281 427.664062 534.765625 426.320312 C 532.890625 436.171875 528.5 445.332031 520.980469 452.425781 Z M 84.324219 245.773438 C 79.238281 243.914062 76.136719 242.136719 76.136719 242.136719 L 70.179688 238.585938 C 69.03125 244.300781 66.253906 249.679688 61.890625 253.640625 C 52.898438 261.796875 42.289062 259.902344 31.605469 256.109375 C 20.839844 252.292969 11.136719 248.878906 0.746094 247.488281 C 1.023438 248.609375 1.363281 249.726562 1.796875 250.824219 C 4.160156 256.789062 8.222656 261.90625 12.800781 266.4375 C 19.808594 268.632812 26.796875 271.296875 34.609375 273.324219 C 45.234375 276.085938 56.832031 276.28125 66.46875 270.34375 C 75.457031 264.8125 81.488281 255.769531 84.324219 245.773438 Z M 190.929688 569.550781 C 192.003906 569.605469 193.046875 569.695312 194.03125 569.863281 C 197.179688 570.382812 203.34375 571.597656 211.597656 573.035156 C 211.785156 572.839844 211.980469 572.660156 212.167969 572.460938 C 221.175781 562.914062 228.230469 552.824219 242.425781 551.832031 C 262.496094 550.441406 271.910156 563.917969 271.644531 580.464844 C 276.699219 580.792969 281.828125 581.035156 287.011719 581.171875 C 287.511719 555.625 271.5625 535.109375 242.425781 536.339844 C 227.421875 536.976562 216.734375 544.320312 206.90625 555.085938 C 201.675781 560.820312 196.496094 565.757812 190.929688 569.550781 Z M 278.601562 444.992188 C 268.195312 453.625 271.296875 469.289062 275.15625 480.242188 C 281.109375 497.128906 296.910156 516.550781 317.78125 509.285156 C 324.453125 506.957031 334.128906 498.59375 329.449219 490.925781 C 326.78125 486.550781 318.277344 484.308594 314.25 481.175781 C 303.882812 473.09375 302.863281 461.84375 301.777344 449.671875 C 299.238281 438.792969 286.609375 438.34375 278.601562 444.992188 Z M 316.855469 446.066406 C 316.941406 446.492188 316.953125 446.886719 316.976562 447.289062 C 317.03125 447.570312 317.109375 447.828125 317.136719 448.121094 C 318.175781 459.648438 319.269531 465.953125 329.289062 472.289062 C 334.113281 475.339844 338.871094 477.703125 342.320312 482.40625 C 348.824219 491.273438 346.675781 503.347656 340.148438 511.664062 C 324.765625 531.253906 294.339844 528.550781 276.769531 513.324219 C 257.984375 497.039062 247.53125 457.632812 264.679688 437.261719 C 279.816406 419.285156 311.839844 420.566406 316.855469 446.066406 Z M 357.816406 573.449219 C 363.164062 571.789062 368.277344 569.832031 373.058594 567.511719 C 364.011719 553.308594 370.953125 536.6875 380.007812 522.566406 C 388.644531 509.089844 405.222656 503.089844 417.828125 511.597656 C 418.238281 510.257812 418.65625 508.914062 419.019531 507.578125 C 420 503.875 420.746094 500.15625 421.332031 496.429688 C 405.429688 488.753906 385.953125 491.449219 372.738281 506.4375 C 363.199219 517.261719 355.699219 533.851562 352.675781 547.921875 C 350.515625 557.964844 352.929688 566.046875 357.816406 573.449219 Z M 370.25 382.792969 C 370.058594 382.667969 369.882812 382.53125 369.699219 382.410156 C 368.101562 381.367188 366.507812 380.394531 364.929688 379.5 C 362.4375 378.097656 359.679688 376.691406 356.792969 375.292969 C 350.804688 383.832031 343.363281 392.96875 336.0625 395.574219 C 321.078125 400.921875 317.617188 378.796875 310.789062 371.339844 C 305.1875 365.214844 298.6875 362.609375 290.40625 363.488281 C 284.402344 364.121094 278.796875 367.933594 272.816406 362.28125 C 266.179688 356.011719 268.808594 349.277344 274.074219 344.585938 C 273.351562 344.328125 272.574219 344.050781 271.902344 343.808594 C 267.09375 342.03125 263.496094 339.109375 260.769531 335.699219 C 256.429688 340.578125 253.707031 346.765625 253.800781 354.210938 C 254.03125 371.09375 267.402344 380.179688 282.480469 380.808594 C 293.628906 381.265625 299.78125 381.367188 304.933594 391.511719 C 306.824219 395.234375 308.371094 399.109375 310.910156 402.476562 C 315.90625 409.097656 322.875 413.839844 331.527344 413.246094 C 347.226562 412.160156 360.375 396.71875 370.25 382.792969 Z M 67.746094 391.367188 C 71.480469 394.734375 75.308594 398.324219 79.117188 402.023438 C 88.84375 387.660156 109.785156 383.816406 122.695312 398.167969 C 130.574219 406.914062 131.59375 417.019531 143.277344 422.226562 C 154.363281 427.171875 168.589844 423.894531 178.734375 430.609375 C 186.027344 435.433594 187.730469 444.503906 184.515625 452.105469 C 188.316406 456.5 192.128906 460.242188 195.859375 463.457031 C 199.074219 458.675781 201.164062 453.011719 201.53125 446.425781 C 202.773438 423.949219 185.964844 413.910156 166.125 411.214844 C 158.707031 410.207031 151.015625 410.285156 145.484375 404.800781 C 141.453125 400.792969 139.777344 394.976562 136.304688 390.4375 C 129.53125 381.582031 119.3125 375.671875 108.324219 373.890625 C 91.855469 371.214844 76.992188 378.851562 67.746094 391.367188 Z M 203.691406 243.4375 C 196.023438 248.507812 192.789062 248.800781 194.035156 258.835938 C 194.5625 263.046875 196.476562 266.316406 196.308594 270.816406 C 196.023438 278.347656 192.464844 285.804688 187.230469 291.152344 C 174.816406 303.863281 150.019531 307.710938 135.738281 296.261719 C 122.496094 285.648438 120.53125 265.542969 118.308594 248.789062 C 121.863281 248.066406 125.480469 246.984375 129.132812 245.375 C 130.398438 244.824219 131.726562 244.1875 133.046875 243.558594 C 134.535156 255.570312 135.597656 269.738281 141.464844 279.378906 C 148.339844 290.675781 167.816406 289.34375 176.28125 280.195312 C 183.648438 272.226562 178.074219 264.890625 176.40625 256.398438 C 174.699219 247.679688 178.929688 240.71875 185.941406 235.730469 C 193.988281 230 201.289062 227.585938 202.035156 215.832031 C 202.257812 212.417969 202.035156 209.023438 201.710938 205.621094 C 206.628906 203.160156 211.488281 200.886719 216.207031 198.949219 C 216.945312 215.652344 220.027344 232.652344 203.691406 243.4375 " fill-opacity="1" fill-rule="nonzero"/></g><path fill="#f04b16" d="M 315.699219 211.976562 C 314.382812 211.691406 313.035156 211.613281 311.691406 211.742188 C 308.792969 212.003906 306.289062 213.234375 304.089844 215.078125 C 302.558594 216.355469 304.761719 218.539062 306.277344 217.265625 C 308.328125 215.558594 310.902344 214.664062 313.5 214.800781 C 312.921875 215.40625 312.554688 216.222656 312.554688 217.128906 C 312.554688 218.988281 314.066406 220.5 315.933594 220.5 C 317.796875 220.5 319.308594 218.988281 319.308594 217.128906 C 319.308594 216.9375 319.230469 216.773438 319.203125 216.59375 C 320.480469 217.128906 321.734375 217.476562 323.425781 217.105469 C 325.375 216.671875 324.546875 213.691406 322.597656 214.117188 C 320.726562 214.523438 317.671875 212.40625 315.699219 211.976562 Z M 267 224.527344 C 262.609375 231.644531 262.25 239.582031 262.5625 247.742188 C 262.628906 249.476562 265.125 249.859375 265.609375 248.148438 C 265.898438 247.121094 266.203125 246.242188 266.539062 245.425781 C 266.007812 250.34375 266.316406 255.292969 266.792969 260.382812 C 266.976562 262.351562 270.078125 262.363281 269.894531 260.382812 C 269.203125 253.042969 268.765625 245.957031 271.058594 238.835938 C 271.539062 237.335938 269.527344 236.257812 268.464844 237.324219 C 267.363281 238.433594 266.460938 239.585938 265.652344 240.773438 C 265.890625 235.644531 266.851562 230.671875 269.679688 226.085938 C 270.726562 224.382812 268.046875 222.828125 267 224.527344 Z M 273.714844 278.800781 C 274.074219 281.375 274.765625 283.84375 275.730469 286.21875 C 267.949219 284.113281 259.878906 285.140625 252.675781 289.109375 C 250.921875 290.078125 252.492188 292.753906 254.238281 291.785156 C 261.792969 287.621094 270.199219 287.160156 278.214844 290.296875 C 279.453125 290.777344 280.195312 289.625 280.035156 288.582031 C 280.039062 288.335938 280.003906 288.078125 279.859375 287.808594 C 278.210938 284.710938 277.183594 281.449219 276.703125 277.976562 C 276.433594 276.007812 273.445312 276.847656 273.714844 278.800781 Z M 273.621094 182.066406 C 270.492188 185.4375 268.664062 189.5 268.058594 194 C 263.359375 194.617188 258.816406 196.5625 255.007812 199.859375 C 253.496094 201.167969 255.699219 203.347656 257.199219 202.050781 C 264.222656 195.972656 274.074219 195.152344 282.066406 199.808594 C 283.796875 200.816406 285.355469 198.140625 283.632812 197.128906 C 279.722656 194.851562 275.445312 193.808594 271.195312 193.8125 C 271.765625 190.21875 273.3125 186.953125 275.808594 184.253906 C 277.164062 182.796875 274.980469 180.601562 273.621094 182.066406 Z M 303.042969 242.839844 C 299.148438 242.460938 295.25 242.082031 291.355469 241.703125 C 289.371094 241.511719 289.386719 244.609375 291.355469 244.800781 C 295.25 245.179688 299.148438 245.5625 303.042969 245.941406 C 305.03125 246.132812 305.011719 243.03125 303.042969 242.839844 Z M 305.617188 250.207031 C 297.453125 253.175781 289.09375 255.179688 280.453125 256.152344 C 278.492188 256.367188 278.472656 259.46875 280.453125 259.25 C 289.375 258.253906 298.003906 256.265625 306.445312 253.195312 C 308.304688 252.515625 307.496094 249.523438 305.617188 250.207031 Z M 296.378906 225.875 C 299.871094 231.335938 303.992188 236.296875 308.742188 240.703125 C 310.207031 242.050781 312.402344 239.867188 310.933594 238.511719 C 306.375 234.28125 302.40625 229.5625 299.054688 224.316406 C 297.984375 222.636719 295.304688 224.191406 296.378906 225.875 Z M 327.65625 242.234375 C 327.65625 243.402344 328.605469 244.351562 329.773438 244.351562 C 330.945312 244.351562 331.890625 243.402344 331.890625 242.234375 C 331.890625 241.0625 330.945312 240.113281 329.773438 240.113281 C 328.605469 240.113281 327.65625 241.0625 327.65625 242.234375 Z M 315.261719 251.003906 C 315.261719 252.175781 316.207031 253.121094 317.378906 253.121094 C 318.546875 253.121094 319.496094 252.175781 319.496094 251.003906 C 319.496094 249.835938 318.546875 248.886719 317.378906 248.886719 C 316.207031 248.886719 315.261719 249.835938 315.261719 251.003906 Z M 327.960938 256.148438 C 329.132812 256.148438 330.078125 255.199219 330.078125 254.027344 C 330.078125 252.859375 329.132812 251.910156 327.960938 251.910156 C 326.792969 251.910156 325.84375 252.859375 325.84375 254.027344 C 325.84375 255.199219 326.792969 256.148438 327.960938 256.148438 Z M 365.082031 252.578125 C 365.851562 253.566406 367.140625 253.820312 368.378906 253.5625 C 369.09375 252.042969 369.757812 250.433594 370.332031 248.621094 C 371.929688 243.558594 371.816406 240.605469 370.453125 238.609375 C 368.605469 238.121094 366.378906 238.882812 364.539062 239.742188 C 363.230469 240.355469 361.820312 241.097656 361.308594 242.449219 C 360.8125 243.75 361.308594 245.195312 361.8125 246.492188 C 362.714844 248.839844 365.082031 252.578125 365.082031 252.578125 Z M 313.363281 293.605469 C 313.878906 298.273438 317.996094 301.847656 322.644531 301.957031 C 324.636719 302.003906 324.714844 298.902344 322.71875 298.855469 C 319.332031 298.777344 316.742188 296.191406 316.382812 292.878906 C 316.160156 290.898438 313.148438 291.644531 313.363281 293.605469 Z M 322.398438 295.542969 C 322.398438 295.542969 329.359375 293.113281 327.507812 285.222656 C 326.769531 282.089844 324.613281 281.976562 324.410156 284.632812 C 324.207031 287.296875 322.273438 287.328125 319.902344 290.023438 C 317.527344 292.714844 322.398438 295.542969 322.398438 295.542969 Z M 349.375 262.878906 C 350.378906 264.601562 353.054688 263.039062 352.050781 261.3125 C 349.71875 257.296875 344.59375 255.414062 340.257812 257.21875 C 338.4375 257.976562 339.242188 260.976562 341.082031 260.207031 C 344.15625 258.929688 347.671875 259.949219 349.375 262.878906 Z M 340.023438 274.6875 C 336.648438 275.429688 335.539062 273.398438 338.019531 271.96875 C 340.496094 270.546875 339.632812 268.664062 341.132812 265.121094 C 342.636719 261.582031 347.625 264.984375 347.625 264.984375 C 347.625 264.984375 348.492188 272.828125 340.023438 274.6875 " fill-opacity="1" fill-rule="nonzero"/><g fill="#00bf63" fill-opacity="1"><g transform="translate(542.423462, 401.939268)"><g><path d="M 33.171875 0 L 4.21875 0 L 4.21875 -47.3125 L 13.140625 -47.3125 L 13.140625 -8 L 33.171875 -8 Z M 33.171875 0 "/></g></g></g><g fill="#00bf63" fill-opacity="1"><g transform="translate(576.767134, 401.939268)"><g><path d="M 22.8125 0.875 C 18.3125 0.875 14.65625 0.117188 11.84375 -1.390625 C 9.03125 -2.898438 6.972656 -5.019531 5.671875 -7.75 C 4.367188 -10.476562 3.71875 -13.617188 3.71875 -17.171875 L 3.71875 -47.3125 L 12.703125 -47.3125 L 12.703125 -17.171875 C 12.703125 -15.234375 13.007812 -13.5 13.625 -11.96875 C 14.25 -10.4375 15.304688 -9.242188 16.796875 -8.390625 C 18.285156 -7.546875 20.289062 -7.125 22.8125 -7.125 C 25.375 -7.125 27.390625 -7.546875 28.859375 -8.390625 C 30.328125 -9.242188 31.367188 -10.4375 31.984375 -11.96875 C 32.609375 -13.5 32.921875 -15.234375 32.921875 -17.171875 L 32.921875 -47.3125 L 41.90625 -47.3125 L 41.90625 -17.171875 C 41.90625 -13.617188 41.253906 -10.476562 39.953125 -7.75 C 38.648438 -5.019531 36.59375 -2.898438 33.78125 -1.390625 C 30.976562 0.117188 27.320312 0.875 22.8125 0.875 Z M 22.8125 0.875 "/></g></g></g><g fill="#00bf63" fill-opacity="1"><g transform="translate(622.951298, 401.939268)"><g><path d="M 25.359375 0.875 C 21.429688 0.875 18.03125 0.210938 15.15625 -1.109375 C 12.28125 -2.429688 9.898438 -4.226562 8.015625 -6.5 C 6.140625 -8.78125 4.738281 -11.394531 3.8125 -14.34375 C 2.882812 -17.300781 2.421875 -20.414062 2.421875 -23.6875 C 2.421875 -26.945312 2.882812 -30.054688 3.8125 -33.015625 C 4.738281 -35.972656 6.140625 -38.585938 8.015625 -40.859375 C 9.898438 -43.128906 12.28125 -44.914062 15.15625 -46.21875 C 18.03125 -47.519531 21.429688 -48.171875 25.359375 -48.171875 C 29.242188 -48.171875 32.609375 -47.507812 35.453125 -46.1875 C 38.304688 -44.863281 40.582031 -43.023438 42.28125 -40.671875 C 43.976562 -38.316406 45.035156 -35.585938 45.453125 -32.484375 L 35.71875 -32.484375 C 35.300781 -35.003906 34.128906 -36.914062 32.203125 -38.21875 C 30.285156 -39.519531 27.921875 -40.171875 25.109375 -40.171875 C 22.210938 -40.171875 19.769531 -39.476562 17.78125 -38.09375 C 15.800781 -36.707031 14.296875 -34.773438 13.265625 -32.296875 C 12.234375 -29.816406 11.71875 -26.945312 11.71875 -23.6875 C 11.71875 -20.414062 12.234375 -17.53125 13.265625 -15.03125 C 14.296875 -12.53125 15.800781 -10.585938 17.78125 -9.203125 C 19.769531 -7.816406 22.210938 -7.125 25.109375 -7.125 C 27.921875 -7.125 30.273438 -7.804688 32.171875 -9.171875 C 34.078125 -10.535156 35.257812 -12.601562 35.71875 -15.375 L 45.453125 -15.375 C 45.035156 -12.113281 43.976562 -9.257812 42.28125 -6.8125 C 40.582031 -4.375 38.304688 -2.484375 35.453125 -1.140625 C 32.609375 0.203125 29.242188 0.875 25.359375 0.875 Z M 25.359375 0.875 "/></g></g></g><g fill="#00bf63" fill-opacity="1"><g transform="translate(670.995229, 401.939268)"><g><path d="M 13.140625 0 L 4.21875 0 L 4.21875 -47.3125 L 13.140625 -47.3125 L 13.140625 -26.28125 L 29.828125 -47.3125 L 40.734375 -47.3125 L 21.890625 -24.484375 L 41.359375 0 L 30.25 0 L 13.140625 -21.953125 Z M 13.140625 0 "/></g></g></g><g fill="#00bf63" fill-opacity="1"><g transform="translate(713.025931, 401.939268)"><g><path d="M 26.40625 0 L 17.046875 0 L 17.046875 -18.53125 L -0.1875 -47.3125 L 10.234375 -47.3125 L 21.703125 -27.21875 L 33.234375 -47.3125 L 43.59375 -47.3125 L 26.40625 -18.53125 Z M 26.40625 0 "/></g></g></g><g fill="#00bf63" fill-opacity="1"><g transform="translate(622.896115, 466.439265)"><g><path d="M 17.984375 0 L 4.21875 0 L 4.21875 -47.3125 L 17.984375 -47.3125 C 26.003906 -47.3125 32.128906 -45.265625 36.359375 -41.171875 C 40.597656 -37.078125 42.71875 -31.226562 42.71875 -23.625 C 42.71875 -16.0625 40.585938 -10.234375 36.328125 -6.140625 C 32.078125 -2.046875 25.960938 0 17.984375 0 Z M 13.140625 -39.3125 L 13.140625 -8 L 17.859375 -8 C 20.992188 -8 23.757812 -8.484375 26.15625 -9.453125 C 28.5625 -10.421875 30.4375 -12.050781 31.78125 -14.34375 C 33.125 -16.644531 33.796875 -19.738281 33.796875 -23.625 C 33.796875 -27.300781 33.132812 -30.285156 31.8125 -32.578125 C 30.488281 -34.867188 28.632812 -36.5625 26.25 -37.65625 C 23.875 -38.757812 21.097656 -39.3125 17.921875 -39.3125 Z M 13.140625 -39.3125 "/></g></g></g><g fill="#00bf63" fill-opacity="1"><g transform="translate(668.522356, 466.439265)"><g><path d="M 9.796875 0 L 0.4375 0 L 17.109375 -47.3125 L 26.90625 -47.3125 L 43.59375 0 L 34.21875 0 L 31 -9.734375 L 12.953125 -9.734375 Z M 22.015625 -37.578125 L 15.5 -17.546875 L 28.515625 -17.546875 Z M 22.015625 -37.578125 "/></g></g></g><g fill="#00bf63" fill-opacity="1"><g transform="translate(713.032741, 466.439265)"><g><path d="M 26.40625 0 L 17.046875 0 L 17.046875 -18.53125 L -0.1875 -47.3125 L 10.234375 -47.3125 L 21.703125 -27.21875 L 33.234375 -47.3125 L 43.59375 -47.3125 L 26.40625 -18.53125 Z M 26.40625 0 "/></g></g></g><g fill="#f04b16" fill-opacity="1"><g transform="translate(599.60477, 216.552021)"><g><path d="M 17.523438 -18.40625 L 20.644531 -19.34375 C 20.226562 -20.695312 19.292969 -22.617188 18.25 -24.230469 L 34.265625 -24.230469 C 33.589844 -22.410156 32.550781 -20.226562 31.5625 -18.40625 Z M 49.554688 -29.636719 L 29.117188 -29.636719 L 29.117188 -33.695312 L 44.40625 -33.695312 L 44.40625 -39.050781 L 29.117188 -39.050781 L 29.117188 -43.730469 L 22.617188 -43.730469 L 22.617188 -39.050781 L 7.902344 -39.050781 L 7.902344 -33.695312 L 22.617188 -33.695312 L 22.617188 -29.636719 L 2.601562 -29.636719 L 2.601562 -24.230469 L 15.652344 -24.230469 L 11.855469 -23.140625 C 12.6875 -21.683594 13.625 -19.863281 14.144531 -18.40625 L 6.863281 -18.40625 L 6.863281 -13 L 22.617188 -13 L 22.617188 -8.683594 L 3.847656 -8.683594 L 3.847656 -3.277344 L 22.617188 -3.277344 L 22.617188 4.523438 L 29.117188 4.523438 L 29.117188 -3.277344 L 48.253906 -3.277344 L 48.253906 -8.683594 L 29.117188 -8.683594 L 29.117188 -13 L 45.863281 -13 L 45.863281 -18.40625 L 37.855469 -18.40625 C 38.945312 -19.863281 40.089844 -21.476562 41.183594 -23.085938 L 36.605469 -24.230469 L 49.554688 -24.230469 Z M 49.554688 -29.636719 "/></g></g></g><g fill="#f04b16" fill-opacity="1"><g transform="translate(652.016808, 216.552021)"><g><path d="M 46.328125 -41.390625 L 19.8125 -41.390625 L 19.8125 -35.671875 L 46.328125 -35.671875 Z M 19.96875 -5.925781 C 21.941406 -6.757812 24.59375 -7.070312 41.960938 -8.734375 C 42.636719 -7.332031 43.261719 -6.03125 43.730469 -4.941406 L 49.292969 -7.800781 C 47.371094 -11.699219 43.3125 -18.199219 40.453125 -22.984375 L 35.304688 -20.644531 C 36.503906 -18.613281 37.75 -16.328125 39.050781 -14.039062 L 26.519531 -13.050781 C 28.804688 -16.378906 31.199219 -20.332031 32.964844 -24.179688 L 49.710938 -24.179688 L 49.710938 -29.949219 L 16.328125 -29.949219 L 16.328125 -24.179688 L 25.480469 -24.179688 C 23.761719 -19.863281 21.527344 -15.964844 20.644531 -14.765625 C 19.601562 -13.3125 18.71875 -12.375 17.628906 -12.0625 C 18.40625 -10.347656 19.5 -7.28125 19.8125 -5.925781 C 19.8125 -6.082031 19.863281 -6.1875 19.96875 -6.34375 Z M 16.273438 -35.359375 C 14.144531 -37.179688 9.828125 -40.140625 7.019531 -42.117188 L 2.964844 -38.21875 C 5.824219 -35.980469 9.984375 -32.808594 11.90625 -30.9375 Z M 14.300781 -26.363281 L 1.871094 -26.363281 L 1.871094 -20.644531 L 8.214844 -20.644531 L 8.214844 -6.082031 C 5.980469 -4.992188 3.585938 -3.171875 1.351562 -0.9375 L 5.617188 5.097656 C 7.800781 1.976562 10.296875 -1.246094 11.90625 -1.246094 C 13 -1.246094 14.765625 0.3125 16.847656 1.457031 C 20.539062 3.535156 24.699219 4.160156 31.199219 4.160156 C 36.867188 4.160156 45.082031 3.847656 48.980469 3.640625 C 49.035156 1.820312 50.125 -1.402344 50.855469 -3.171875 C 45.445312 -2.390625 36.710938 -1.925781 31.457031 -1.925781 C 25.789062 -1.925781 21.164062 -2.183594 17.679688 -4.265625 C 16.273438 -5.097656 15.183594 -5.875 14.300781 -6.394531 Z M 14.300781 -26.363281 "/></g></g></g><g fill="#f04b16" fill-opacity="1"><g transform="translate(704.428846, 216.552021)"><g><path d="M 14.457031 -5.71875 L 14.457031 -17.367188 L 37.542969 -17.367188 L 37.542969 -5.71875 Z M 37.542969 -34.683594 L 37.542969 -23.503906 L 14.457031 -23.503906 L 14.457031 -34.683594 Z M 8.058594 -40.921875 L 8.058594 3.898438 L 14.457031 3.898438 L 14.457031 0.519531 L 37.542969 0.519531 L 37.542969 3.796875 L 44.199219 3.796875 L 44.199219 -40.921875 Z M 8.058594 -40.921875 "/></g></g></g><g fill="#ffb5b1" fill-opacity="1"><g transform="translate(419.990238, 194.802022)"><g><path d="M 7.390625 0.25 C 6.242188 0.25 5.25 0.0546875 4.40625 -0.328125 C 3.570312 -0.710938 2.878906 -1.238281 2.328125 -1.90625 C 1.773438 -2.582031 1.363281 -3.34375 1.09375 -4.1875 C 0.832031 -5.039062 0.703125 -5.9375 0.703125 -6.875 C 0.703125 -7.8125 0.832031 -8.703125 1.09375 -9.546875 C 1.363281 -10.398438 1.773438 -11.160156 2.328125 -11.828125 C 2.878906 -12.492188 3.570312 -13.019531 4.40625 -13.40625 C 5.25 -13.789062 6.242188 -13.984375 7.390625 -13.984375 C 9.171875 -13.984375 10.585938 -13.5625 11.640625 -12.71875 C 12.691406 -11.882812 13.351562 -10.789062 13.625 -9.4375 L 10.78125 -9.4375 C 10.550781 -10.144531 10.15625 -10.691406 9.59375 -11.078125 C 9.03125 -11.460938 8.289062 -11.65625 7.375 -11.65625 C 6.5 -11.65625 5.765625 -11.445312 5.171875 -11.03125 C 4.585938 -10.613281 4.144531 -10.046875 3.84375 -9.328125 C 3.550781 -8.609375 3.40625 -7.796875 3.40625 -6.890625 C 3.40625 -5.972656 3.5625 -5.148438 3.875 -4.421875 C 4.1875 -3.691406 4.648438 -3.113281 5.265625 -2.6875 C 5.890625 -2.269531 6.671875 -2.0625 7.609375 -2.0625 C 8.691406 -2.0625 9.550781 -2.332031 10.1875 -2.875 C 10.820312 -3.425781 11.148438 -4.242188 11.171875 -5.328125 L 8.140625 -5.328125 L 8.140625 -7.46875 L 13.75 -7.46875 L 13.75 0 L 11.390625 0 L 11.390625 -1.546875 C 10.910156 -0.859375 10.304688 -0.382812 9.578125 -0.125 C 8.859375 0.125 8.128906 0.25 7.390625 0.25 Z M 7.390625 0.25 "/></g></g></g><g fill="#ffb5b1" fill-opacity="1"><g transform="translate(434.876186, 194.802022)"><g><path d="M 7.359375 0.25 C 6.234375 0.25 5.25 0.0546875 4.40625 -0.328125 C 3.570312 -0.710938 2.878906 -1.234375 2.328125 -1.890625 C 1.785156 -2.546875 1.378906 -3.300781 1.109375 -4.15625 C 0.835938 -5.019531 0.703125 -5.925781 0.703125 -6.875 C 0.703125 -7.820312 0.835938 -8.722656 1.109375 -9.578125 C 1.378906 -10.441406 1.785156 -11.203125 2.328125 -11.859375 C 2.878906 -12.523438 3.570312 -13.046875 4.40625 -13.421875 C 5.25 -13.796875 6.234375 -13.984375 7.359375 -13.984375 C 8.503906 -13.984375 9.492188 -13.796875 10.328125 -13.421875 C 11.171875 -13.046875 11.863281 -12.523438 12.40625 -11.859375 C 12.957031 -11.203125 13.367188 -10.441406 13.640625 -9.578125 C 13.910156 -8.722656 14.046875 -7.820312 14.046875 -6.875 C 14.046875 -5.925781 13.910156 -5.019531 13.640625 -4.15625 C 13.367188 -3.300781 12.957031 -2.546875 12.40625 -1.890625 C 11.863281 -1.234375 11.171875 -0.710938 10.328125 -0.328125 C 9.492188 0.0546875 8.503906 0.25 7.359375 0.25 Z M 7.359375 -2.0625 C 8.210938 -2.0625 8.929688 -2.265625 9.515625 -2.671875 C 10.109375 -3.078125 10.5625 -3.640625 10.875 -4.359375 C 11.1875 -5.085938 11.34375 -5.925781 11.34375 -6.875 C 11.34375 -7.820312 11.1875 -8.648438 10.875 -9.359375 C 10.5625 -10.078125 10.109375 -10.632812 9.515625 -11.03125 C 8.929688 -11.4375 8.210938 -11.640625 7.359375 -11.640625 C 6.535156 -11.640625 5.828125 -11.4375 5.234375 -11.03125 C 4.640625 -10.632812 4.1875 -10.078125 3.875 -9.359375 C 3.5625 -8.648438 3.40625 -7.820312 3.40625 -6.875 C 3.40625 -5.925781 3.5625 -5.085938 3.875 -4.359375 C 4.1875 -3.640625 4.640625 -3.078125 5.234375 -2.671875 C 5.828125 -2.265625 6.535156 -2.0625 7.359375 -2.0625 Z M 7.359375 -2.0625 "/></g></g></g><g fill="#ffb5b1" fill-opacity="1"><g transform="translate(449.780135, 194.802022)"><g><path d="M 7.359375 0.25 C 6.234375 0.25 5.25 0.0546875 4.40625 -0.328125 C 3.570312 -0.710938 2.878906 -1.234375 2.328125 -1.890625 C 1.785156 -2.546875 1.378906 -3.300781 1.109375 -4.15625 C 0.835938 -5.019531 0.703125 -5.925781 0.703125 -6.875 C 0.703125 -7.820312 0.835938 -8.722656 1.109375 -9.578125 C 1.378906 -10.441406 1.785156 -11.203125 2.328125 -11.859375 C 2.878906 -12.523438 3.570312 -13.046875 4.40625 -13.421875 C 5.25 -13.796875 6.234375 -13.984375 7.359375 -13.984375 C 8.503906 -13.984375 9.492188 -13.796875 10.328125 -13.421875 C 11.171875 -13.046875 11.863281 -12.523438 12.40625 -11.859375 C 12.957031 -11.203125 13.367188 -10.441406 13.640625 -9.578125 C 13.910156 -8.722656 14.046875 -7.820312 14.046875 -6.875 C 14.046875 -5.925781 13.910156 -5.019531 13.640625 -4.15625 C 13.367188 -3.300781 12.957031 -2.546875 12.40625 -1.890625 C 11.863281 -1.234375 11.171875 -0.710938 10.328125 -0.328125 C 9.492188 0.0546875 8.503906 0.25 7.359375 0.25 Z M 7.359375 -2.0625 C 8.210938 -2.0625 8.929688 -2.265625 9.515625 -2.671875 C 10.109375 -3.078125 10.5625 -3.640625 10.875 -4.359375 C 11.1875 -5.085938 11.34375 -5.925781 11.34375 -6.875 C 11.34375 -7.820312 11.1875 -8.648438 10.875 -9.359375 C 10.5625 -10.078125 10.109375 -10.632812 9.515625 -11.03125 C 8.929688 -11.4375 8.210938 -11.640625 7.359375 -11.640625 C 6.535156 -11.640625 5.828125 -11.4375 5.234375 -11.03125 C 4.640625 -10.632812 4.1875 -10.078125 3.875 -9.359375 C 3.5625 -8.648438 3.40625 -7.820312 3.40625 -6.875 C 3.40625 -5.925781 3.5625 -5.085938 3.875 -4.359375 C 4.1875 -3.640625 4.640625 -3.078125 5.234375 -2.671875 C 5.828125 -2.265625 6.535156 -2.0625 7.359375 -2.0625 Z M 7.359375 -2.0625 "/></g></g></g><g fill="#ffb5b1" fill-opacity="1"><g transform="translate(464.684084, 194.802022)"><g><path d="M 5.21875 0 L 1.21875 0 L 1.21875 -13.734375 L 5.21875 -13.734375 C 7.550781 -13.734375 9.332031 -13.140625 10.5625 -11.953125 C 11.789062 -10.765625 12.40625 -9.066406 12.40625 -6.859375 C 12.40625 -4.660156 11.785156 -2.96875 10.546875 -1.78125 C 9.304688 -0.59375 7.53125 0 5.21875 0 Z M 3.8125 -11.40625 L 3.8125 -2.328125 L 5.1875 -2.328125 C 6.09375 -2.328125 6.894531 -2.46875 7.59375 -2.75 C 8.289062 -3.03125 8.832031 -3.503906 9.21875 -4.171875 C 9.613281 -4.835938 9.8125 -5.734375 9.8125 -6.859375 C 9.8125 -7.921875 9.617188 -8.785156 9.234375 -9.453125 C 8.847656 -10.117188 8.3125 -10.609375 7.625 -10.921875 C 6.9375 -11.242188 6.128906 -11.40625 5.203125 -11.40625 Z M 3.8125 -11.40625 "/></g></g></g><g fill="#ffb5b1" fill-opacity="1"><g transform="translate(419.990238, 213.552021)"><g><path d="M 3.8125 0 L 1.21875 0 L 1.21875 -13.734375 L 10.390625 -13.734375 L 10.390625 -11.40625 L 3.8125 -11.40625 L 3.8125 -8.03125 L 9.703125 -8.03125 L 9.703125 -5.71875 L 3.8125 -5.71875 Z M 3.8125 0 "/></g></g></g><g fill="#ffb5b1" fill-opacity="1"><g transform="translate(431.006195, 213.552021)"><g><path d="M 7.359375 0.25 C 6.234375 0.25 5.25 0.0546875 4.40625 -0.328125 C 3.570312 -0.710938 2.878906 -1.234375 2.328125 -1.890625 C 1.785156 -2.546875 1.378906 -3.300781 1.109375 -4.15625 C 0.835938 -5.019531 0.703125 -5.925781 0.703125 -6.875 C 0.703125 -7.820312 0.835938 -8.722656 1.109375 -9.578125 C 1.378906 -10.441406 1.785156 -11.203125 2.328125 -11.859375 C 2.878906 -12.523438 3.570312 -13.046875 4.40625 -13.421875 C 5.25 -13.796875 6.234375 -13.984375 7.359375 -13.984375 C 8.503906 -13.984375 9.492188 -13.796875 10.328125 -13.421875 C 11.171875 -13.046875 11.863281 -12.523438 12.40625 -11.859375 C 12.957031 -11.203125 13.367188 -10.441406 13.640625 -9.578125 C 13.910156 -8.722656 14.046875 -7.820312 14.046875 -6.875 C 14.046875 -5.925781 13.910156 -5.019531 13.640625 -4.15625 C 13.367188 -3.300781 12.957031 -2.546875 12.40625 -1.890625 C 11.863281 -1.234375 11.171875 -0.710938 10.328125 -0.328125 C 9.492188 0.0546875 8.503906 0.25 7.359375 0.25 Z M 7.359375 -2.0625 C 8.210938 -2.0625 8.929688 -2.265625 9.515625 -2.671875 C 10.109375 -3.078125 10.5625 -3.640625 10.875 -4.359375 C 11.1875 -5.085938 11.34375 -5.925781 11.34375 -6.875 C 11.34375 -7.820312 11.1875 -8.648438 10.875 -9.359375 C 10.5625 -10.078125 10.109375 -10.632812 9.515625 -11.03125 C 8.929688 -11.4375 8.210938 -11.640625 7.359375 -11.640625 C 6.535156 -11.640625 5.828125 -11.4375 5.234375 -11.03125 C 4.640625 -10.632812 4.1875 -10.078125 3.875 -9.359375 C 3.5625 -8.648438 3.40625 -7.820312 3.40625 -6.875 C 3.40625 -5.925781 3.5625 -5.085938 3.875 -4.359375 C 4.1875 -3.640625 4.640625 -3.078125 5.234375 -2.671875 C 5.828125 -2.265625 6.535156 -2.0625 7.359375 -2.0625 Z M 7.359375 -2.0625 "/></g></g></g><g fill="#ffb5b1" fill-opacity="1"><g transform="translate(445.910144, 213.552021)"><g><path d="M 9.34375 -5.953125 L 11.8125 0 L 9.046875 0 L 6.875 -5.484375 L 3.8125 -5.484375 L 3.8125 0 L 1.21875 0 L 1.21875 -13.734375 L 7.140625 -13.734375 C 8.003906 -13.734375 8.765625 -13.59375 9.421875 -13.3125 C 10.078125 -13.03125 10.585938 -12.59375 10.953125 -12 C 11.316406 -11.40625 11.5 -10.632812 11.5 -9.6875 C 11.5 -8.78125 11.304688 -8.007812 10.921875 -7.375 C 10.535156 -6.738281 10.007812 -6.265625 9.34375 -5.953125 Z M 6.78125 -11.40625 L 3.8125 -11.40625 L 3.8125 -7.765625 L 6.78125 -7.765625 C 7.476562 -7.765625 8.007812 -7.914062 8.375 -8.21875 C 8.738281 -8.53125 8.921875 -8.988281 8.921875 -9.59375 C 8.921875 -10.175781 8.734375 -10.625 8.359375 -10.9375 C 7.992188 -11.25 7.46875 -11.40625 6.78125 -11.40625 Z M 6.78125 -11.40625 "/></g></g></g><g fill="#ffb5b1" fill-opacity="1"><g transform="translate(458.456095, 213.552021)"><g><path d="M 6.96875 0 L 4.375 0 L 4.375 -11.40625 L 0.1875 -11.40625 L 0.1875 -13.734375 L 11.140625 -13.734375 L 11.140625 -11.40625 L 6.96875 -11.40625 Z M 6.96875 0 "/></g></g></g><g fill="#ffb5b1" fill-opacity="1"><g transform="translate(469.940046, 213.552021)"><g><path d="M 6.625 0.25 C 5.3125 0.25 4.25 0.03125 3.4375 -0.40625 C 2.625 -0.84375 2.023438 -1.457031 1.640625 -2.25 C 1.265625 -3.039062 1.078125 -3.953125 1.078125 -4.984375 L 1.078125 -13.734375 L 3.6875 -13.734375 L 3.6875 -4.984375 C 3.6875 -4.421875 3.773438 -3.914062 3.953125 -3.46875 C 4.140625 -3.03125 4.445312 -2.6875 4.875 -2.4375 C 5.3125 -2.1875 5.894531 -2.0625 6.625 -2.0625 C 7.363281 -2.0625 7.945312 -2.1875 8.375 -2.4375 C 8.800781 -2.6875 9.101562 -3.03125 9.28125 -3.46875 C 9.46875 -3.914062 9.5625 -4.421875 9.5625 -4.984375 L 9.5625 -13.734375 L 12.171875 -13.734375 L 12.171875 -4.984375 C 12.171875 -3.953125 11.976562 -3.039062 11.59375 -2.25 C 11.21875 -1.457031 10.625 -0.84375 9.8125 -0.40625 C 9 0.03125 7.9375 0.25 6.625 0.25 Z M 6.625 0.25 "/></g></g></g><g fill="#ffb5b1" fill-opacity="1"><g transform="translate(483.349992, 213.552021)"><g><path d="M 3.8125 0 L 1.21875 0 L 1.21875 -13.734375 L 4.140625 -13.734375 L 9.78125 -3.90625 L 9.78125 -13.734375 L 12.359375 -13.734375 L 12.359375 0 L 9.4375 0 L 3.8125 -9.84375 Z M 3.8125 0 "/></g></g></g><g fill="#ffb5b1" fill-opacity="1"><g transform="translate(497.083942, 213.552021)"><g><path d="M 10.390625 0 L 1.21875 0 L 1.21875 -13.734375 L 10.390625 -13.734375 L 10.390625 -11.40625 L 3.8125 -11.40625 L 3.8125 -8.03125 L 9.703125 -8.03125 L 9.703125 -5.71875 L 3.8125 -5.71875 L 3.8125 -2.328125 L 10.390625 -2.328125 Z M 10.390625 0 "/></g></g></g></svg>