<svg xmlns="http://www.w3.org/2000/svg" xmlns:xlink="http://www.w3.org/1999/xlink" width="1024" zoomAndPan="magnify" viewBox="0 0 375 375.00002" height="1024" preserveAspectRatio="xMidYMid meet" version="1.0"><defs><g/><clipPath id="7576a33cdf"><path d="M 0.5 0 L 374.5 0 L 374.5 374.003906 L 0.5 374.003906 Z M 0.5 0 " clip-rule="nonzero"/></clipPath><clipPath id="d4d0f65379"><path d="M 213.679688 76.597656 L 374.5 76.597656 L 374.5 374.003906 L 213.679688 374.003906 Z M 213.679688 76.597656 " clip-rule="nonzero"/></clipPath><clipPath id="427b0d04c5"><path d="M 239 138 L 374.5 138 L 374.5 374.003906 L 239 374.003906 Z M 239 138 " clip-rule="nonzero"/></clipPath></defs><g clip-path="url(#7576a33cdf)"><path fill="#ffffff" d="M 0.5 0 L 766.457031 0 L 766.457031 765.957031 L 0.5 765.957031 Z M 0.5 0 " fill-opacity="1" fill-rule="nonzero"/><path fill="#f6f4f0" d="M 0.5 0 L 766.457031 0 L 766.457031 765.957031 L 0.5 765.957031 Z M 0.5 0 " fill-opacity="1" fill-rule="nonzero"/></g><g clip-path="url(#d4d0f65379)"><path fill="#ffb5b1" d="M 493.492188 255.847656 L 511.03125 255.847656 C 520.695312 255.847656 528.5625 263.714844 528.5625 273.386719 L 528.5625 282.351562 C 528.5625 292.023438 520.695312 299.886719 511.03125 299.886719 C 501.355469 299.886719 493.492188 292.023438 493.492188 282.351562 Z M 214.054688 473.269531 C 216.214844 482.453125 222.429688 487.914062 226.78125 490.714844 C 229.914062 492.734375 232.246094 495.777344 233.355469 499.339844 C 234 501.390625 234.765625 503.925781 235.628906 506.921875 C 242.816406 531.871094 266.695312 564.742188 276.1875 586.316406 C 285.679688 607.890625 273.601562 628.601562 273.601562 628.601562 L 254.023438 661.417969 C 243.851562 678.480469 264.519531 694.269531 280.535156 687.917969 C 286.082031 685.714844 290.714844 681.683594 294.757812 677.285156 C 301 670.496094 306.164062 662.621094 309.8125 654.144531 C 313.316406 645.984375 313.902344 637.070312 316.917969 628.757812 C 319.222656 622.398438 325.675781 618.277344 332.78125 619.257812 C 342.113281 620.546875 347.382812 629.691406 344.449219 638.636719 C 342.945312 643.226562 341.800781 647.527344 341.59375 650.460938 L 340.9375 659.859375 C 340.300781 669.011719 347.148438 677.328125 356.980469 677.902344 C 365.996094 678.4375 373.394531 671.3125 374.585938 662.363281 C 374.746094 661.144531 375.019531 659.960938 375.429688 658.804688 C 379.75 646.726562 411.675781 613.933594 430.660156 599.261719 C 442.550781 590.078125 439.550781 573.105469 435.644531 561.703125 C 433.257812 554.726562 435.433594 547.054688 441.015625 542.234375 C 456.003906 529.304688 461.777344 516.230469 463.988281 508.441406 C 464.746094 505.796875 467.761719 504.742188 470.085938 506.199219 C 474.199219 508.765625 479.527344 509.445312 484.015625 509.441406 C 489.023438 509.433594 493.054688 513.523438 493 518.53125 L 492.859375 530.164062 C 492.816406 533.640625 493.246094 537.105469 494.136719 540.46875 L 500.355469 563.898438 C 502.53125 572.089844 509.800781 577.898438 518.269531 578.199219 C 531.304688 578.667969 541.1875 566.253906 537.480469 553.746094 C 535.445312 546.890625 534.1875 539.902344 535.082031 534.539062 C 537.667969 519.007812 560.972656 412.859375 521.269531 374.886719 C 510.316406 364.414062 497.789062 358.339844 485.386719 355.03125 C 471.488281 351.332031 457.308594 351.1875 443.851562 354.078125 L 443.851562 273.386719 C 443.851562 263.714844 451.71875 255.847656 461.386719 255.847656 L 468.765625 255.847656 L 468.765625 282.351562 C 468.765625 305.65625 487.722656 324.613281 511.03125 324.613281 C 534.332031 324.613281 553.289062 305.65625 553.289062 282.351562 L 553.289062 273.386719 C 553.289062 250.082031 534.332031 231.125 511.03125 231.125 L 493.492188 231.125 L 493.492188 88.957031 C 493.492188 82.128906 487.957031 76.597656 481.128906 76.597656 C 474.300781 76.597656 468.765625 82.128906 468.765625 88.957031 L 468.765625 231.125 L 461.386719 231.125 C 438.089844 231.125 419.132812 250.082031 419.132812 273.386719 L 419.132812 363.285156 C 405.8125 370.550781 394.164062 381.132812 385.523438 394.382812 C 384.6875 395.65625 383.914062 396.929688 383.199219 398.1875 C 371.980469 418.039062 360.761719 456.011719 354.722656 472.40625 C 348.679688 488.804688 326.242188 487.9375 326.242188 487.9375 L 314.160156 464.636719 C 314.160156 464.636719 321.097656 458.882812 326.277344 451.980469 C 331.449219 445.078125 328.769531 432.238281 321 426.199219 C 313.234375 420.160156 311.570312 437.886719 302.078125 443.929688 C 292.582031 449.96875 292.582031 430.984375 294.3125 421.492188 C 296.039062 412 295.171875 399.054688 278.777344 393.875 C 262.382812 388.699219 273.601562 405.957031 252.027344 421.492188 C 230.449219 437.027344 232.179688 455.144531 232.179688 455.144531 C 232.179688 455.144531 210.601562 458.597656 214.054688 473.269531 " fill-opacity="1" fill-rule="nonzero"/></g><g clip-path="url(#427b0d04c5)"><path fill="#f04b16" d="M 361.261719 504.59375 C 353.394531 505.347656 353.34375 517.714844 361.261719 516.953125 C 367.984375 516.3125 375.921875 515.234375 382.117188 518.628906 C 386.800781 521.1875 390.125 526.65625 386.449219 531.457031 C 383.242188 535.652344 377.675781 536.800781 373.042969 538.546875 C 368.621094 540.214844 365.339844 542.988281 363.089844 547.144531 C 361.25 550.535156 360.351562 557.753906 355.613281 557.65625 C 349.558594 557.53125 348.125 549.394531 347.941406 544.875 C 347.546875 534.914062 349.316406 517.257812 362.570312 516.871094 C 370.523438 516.636719 370.527344 504.277344 362.570312 504.511719 C 341.425781 505.128906 334.5 528.074219 335.617188 545.832031 C 336.160156 554.535156 339.152344 563.261719 347.195312 567.71875 C 354.050781 571.515625 362.667969 570.707031 367.929688 564.695312 C 370.671875 561.558594 371.582031 557.71875 373.402344 554.085938 C 375.425781 550.046875 378.808594 549.816406 382.683594 548.289062 C 390.183594 545.335938 397.632812 540.09375 399.882812 531.917969 C 402.277344 523.21875 397.734375 514.472656 390.675781 509.445312 C 382.105469 503.335938 371.273438 503.632812 361.261719 504.59375 Z M 468.765625 145.816406 L 468.765625 152.3125 C 482.03125 160.519531 492.347656 174.96875 482.5625 190.410156 C 479.0625 195.929688 473.960938 199.855469 468.765625 203.734375 L 468.765625 218.835938 C 475.078125 212.605469 483.308594 208.347656 489.335938 201.664062 C 490.929688 199.894531 492.3125 197.992188 493.492188 195.996094 L 493.492188 159.550781 C 488.609375 150.71875 480.46875 143.90625 471.148438 139.277344 C 471.023438 139.214844 470.902344 139.160156 470.777344 139.097656 L 468.765625 138.359375 M 524.84375 233.488281 C 520.867188 232.113281 516.636719 231.3125 512.226562 231.1875 C 508.6875 238.917969 507.371094 247.398438 508.703125 255.847656 L 511.03125 255.847656 C 515.402344 255.847656 519.398438 257.46875 522.472656 260.128906 C 518.933594 251.09375 520.164062 241.570312 524.84375 233.488281 Z M 548.089844 302.625 C 550.691406 297.890625 552.402344 292.605469 553.019531 286.996094 C 551.0625 285 548.730469 283.136719 545.984375 281.4375 C 539.46875 277.417969 532.917969 274.367188 527.992188 269.023438 C 528.351562 270.421875 528.5625 271.878906 528.5625 273.386719 L 528.5625 282.351562 C 528.5625 283.425781 528.453125 284.464844 528.269531 285.480469 C 529.140625 286.0625 530.027344 286.628906 530.9375 287.167969 C 534.933594 289.523438 539.621094 291.332031 543.101562 294.460938 C 545.894531 296.972656 547.433594 299.71875 548.089844 302.625 Z M 443.851562 308.238281 L 443.851562 291.355469 C 441.234375 294.769531 437.054688 297.730469 432.71875 300.371094 C 427.390625 303.613281 422.867188 307.253906 419.132812 311.472656 L 419.132812 336.714844 C 420.019531 336.003906 420.726562 334.964844 421.09375 333.554688 C 424.667969 319.933594 433.894531 315.226562 443.851562 308.238281 Z M 441.382812 273.679688 C 442.378906 274.738281 443.164062 275.75 443.851562 276.75 L 443.851562 273.386719 C 443.851562 269.164062 445.355469 265.28125 447.851562 262.25 C 441.535156 256.957031 433.457031 253.292969 425.4375 251.289062 C 423.277344 254.789062 421.625 258.613281 420.554688 262.683594 C 428.414062 264.175781 435.722656 267.679688 441.382812 273.679688 Z M 276.503906 622.070312 C 275.019531 626.128906 273.601562 628.601562 273.601562 628.601562 L 270.769531 633.355469 C 275.332031 634.269531 279.621094 636.488281 282.78125 639.96875 C 289.289062 647.144531 287.777344 655.609375 284.75 664.132812 C 281.707031 672.722656 278.984375 680.460938 277.871094 688.753906 C 278.769531 688.535156 279.660156 688.261719 280.535156 687.917969 C 285.292969 686.03125 289.375 682.789062 292.992188 679.136719 C 294.742188 673.546875 296.867188 667.96875 298.484375 661.734375 C 300.6875 653.257812 300.847656 644.003906 296.105469 636.316406 C 291.691406 629.144531 284.480469 624.332031 276.503906 622.070312 Z M 534.832031 537.015625 C 534.875 536.160156 534.949219 535.324219 535.082031 534.539062 C 535.5 532.027344 536.464844 527.109375 537.613281 520.523438 C 537.457031 520.375 537.3125 520.21875 537.15625 520.070312 C 529.539062 512.882812 521.488281 507.253906 520.695312 495.925781 C 519.585938 479.914062 530.339844 472.402344 543.539062 472.613281 C 543.804688 468.582031 543.996094 464.488281 544.105469 460.355469 C 523.722656 459.957031 507.355469 472.679688 508.335938 495.925781 C 508.84375 507.898438 514.703125 516.425781 523.292969 524.265625 C 527.867188 528.441406 531.808594 532.574219 534.832031 537.015625 Z M 435.453125 467.066406 C 442.339844 475.367188 454.839844 472.890625 463.578125 469.8125 C 477.050781 465.0625 492.546875 452.453125 486.75 435.804688 C 484.894531 430.480469 478.21875 422.761719 472.101562 426.496094 C 468.613281 428.625 466.820312 435.40625 464.324219 438.621094 C 457.875 446.890625 448.898438 447.707031 439.1875 448.574219 C 430.507812 450.597656 430.148438 460.675781 435.453125 467.066406 Z M 436.308594 436.542969 C 436.648438 436.476562 436.964844 436.464844 437.285156 436.445312 C 437.511719 436.402344 437.714844 436.339844 437.949219 436.316406 C 447.148438 435.488281 452.179688 434.617188 457.234375 426.625 C 459.664062 422.773438 461.550781 418.976562 465.304688 416.226562 C 472.378906 411.035156 482.011719 412.75 488.648438 417.957031 C 504.277344 430.234375 502.121094 454.507812 489.972656 468.527344 C 476.980469 483.515625 445.539062 491.851562 429.285156 478.171875 C 414.945312 466.09375 415.964844 440.542969 436.308594 436.542969 Z M 537.945312 403.859375 C 536.617188 399.59375 535.058594 395.515625 533.207031 391.699219 C 521.875 398.921875 508.613281 393.382812 497.34375 386.15625 C 486.59375 379.265625 481.804688 366.039062 488.59375 355.980469 C 487.527344 355.652344 486.453125 355.320312 485.386719 355.03125 C 482.433594 354.246094 479.464844 353.652344 476.492188 353.183594 C 470.371094 365.875 472.519531 381.414062 484.476562 391.953125 C 493.113281 399.566406 506.347656 405.550781 517.574219 407.964844 C 525.589844 409.6875 532.039062 407.761719 537.945312 403.859375 Z M 385.828125 393.941406 C 385.726562 394.09375 385.617188 394.234375 385.523438 394.382812 C 384.6875 395.65625 383.914062 396.929688 383.199219 398.1875 C 382.078125 400.175781 380.960938 402.375 379.84375 404.679688 C 386.65625 409.457031 393.945312 415.394531 396.023438 421.21875 C 400.289062 433.171875 382.640625 435.933594 376.6875 441.382812 C 371.800781 445.851562 369.722656 451.039062 370.421875 457.644531 C 370.929688 462.4375 373.96875 466.90625 369.460938 471.679688 C 364.457031 476.976562 359.085938 474.878906 355.34375 470.675781 C 355.136719 471.253906 354.917969 471.871094 354.722656 472.40625 C 353.304688 476.246094 350.972656 479.113281 348.253906 481.292969 C 352.144531 484.753906 357.082031 486.925781 363.023438 486.851562 C 376.492188 486.667969 383.742188 476 384.242188 463.96875 C 384.605469 455.074219 384.6875 450.167969 392.785156 446.054688 C 395.75 444.546875 398.84375 443.3125 401.53125 441.285156 C 406.816406 437.296875 410.597656 431.742188 410.121094 424.835938 C 409.257812 412.308594 396.9375 401.820312 385.828125 393.941406 Z M 392.667969 635.296875 C 395.355469 632.316406 398.21875 629.265625 401.171875 626.222656 C 389.710938 618.464844 386.640625 601.757812 398.09375 591.453125 C 405.074219 585.167969 413.132812 584.355469 417.289062 575.035156 C 421.234375 566.1875 418.621094 554.839844 423.976562 546.742188 C 427.824219 540.925781 435.0625 539.566406 441.128906 542.132812 C 444.632812 539.097656 447.621094 536.058594 450.1875 533.082031 C 446.371094 530.515625 441.851562 528.847656 436.597656 528.554688 C 418.664062 527.566406 410.652344 540.972656 408.503906 556.804688 C 407.699219 562.722656 407.761719 568.859375 403.386719 573.273438 C 400.1875 576.492188 395.546875 577.824219 391.925781 580.597656 C 384.859375 586.003906 380.144531 594.15625 378.722656 602.921875 C 376.589844 616.0625 382.683594 627.917969 392.667969 635.296875 Z M 274.640625 526.832031 C 278.6875 532.949219 278.921875 535.53125 286.925781 534.535156 C 290.285156 534.113281 292.894531 532.585938 296.484375 532.722656 C 302.492188 532.949219 308.445312 535.789062 312.707031 539.964844 C 322.851562 549.867188 325.921875 569.652344 316.789062 581.046875 C 308.320312 591.613281 292.277344 593.183594 278.910156 594.953125 C 278.332031 592.121094 277.46875 589.234375 276.1875 586.316406 C 275.746094 585.308594 275.238281 584.25 274.738281 583.195312 C 284.320312 582.011719 295.625 581.164062 303.316406 576.480469 C 312.332031 570.996094 311.269531 555.457031 303.96875 548.699219 C 297.609375 542.820312 291.753906 547.269531 284.980469 548.601562 C 278.027344 549.964844 272.472656 546.589844 268.488281 540.992188 C 263.917969 534.574219 261.992188 528.746094 252.617188 528.15625 C 249.890625 527.976562 247.183594 528.15625 244.46875 528.414062 C 242.503906 524.488281 240.691406 520.609375 239.144531 516.847656 C 252.472656 516.257812 266.035156 513.796875 274.640625 526.832031 " fill-opacity="1" fill-rule="nonzero"/></g><g fill="#ffb5b1" fill-opacity="1"><g transform="translate(213.574098, 116.389649)"><g><path d="M 14.117188 -14.828125 L 16.628906 -15.582031 C 16.292969 -16.671875 15.539062 -18.222656 14.703125 -19.519531 L 27.605469 -19.519531 C 27.058594 -18.054688 26.222656 -16.292969 25.425781 -14.828125 Z M 39.917969 -23.875 L 23.457031 -23.875 L 23.457031 -27.144531 L 35.773438 -27.144531 L 35.773438 -31.457031 L 23.457031 -31.457031 L 23.457031 -35.226562 L 18.222656 -35.226562 L 18.222656 -31.457031 L 6.367188 -31.457031 L 6.367188 -27.144531 L 18.222656 -27.144531 L 18.222656 -23.875 L 2.09375 -23.875 L 2.09375 -19.519531 L 12.609375 -19.519531 L 9.550781 -18.640625 C 10.222656 -17.46875 10.976562 -16 11.394531 -14.828125 L 5.527344 -14.828125 L 5.527344 -10.472656 L 18.222656 -10.472656 L 18.222656 -6.996094 L 3.101562 -6.996094 L 3.101562 -2.640625 L 18.222656 -2.640625 L 18.222656 3.644531 L 23.457031 3.644531 L 23.457031 -2.640625 L 38.871094 -2.640625 L 38.871094 -6.996094 L 23.457031 -6.996094 L 23.457031 -10.472656 L 36.945312 -10.472656 L 36.945312 -14.828125 L 30.496094 -14.828125 C 31.375 -16 32.296875 -17.300781 33.175781 -18.597656 L 29.488281 -19.519531 L 39.917969 -19.519531 Z M 39.917969 -23.875 "/></g></g></g><g fill="#ffb5b1" fill-opacity="1"><g transform="translate(255.797502, 116.389649)"><g><path d="M 37.324219 -33.34375 L 15.960938 -33.34375 L 15.960938 -28.734375 L 37.324219 -28.734375 Z M 16.085938 -4.773438 C 17.675781 -5.445312 19.8125 -5.695312 33.804688 -7.039062 C 34.347656 -5.90625 34.851562 -4.859375 35.226562 -3.980469 L 39.710938 -6.285156 C 38.160156 -9.425781 34.894531 -14.660156 32.589844 -18.515625 L 28.441406 -16.628906 C 29.40625 -14.996094 30.410156 -13.152344 31.457031 -11.308594 L 21.363281 -10.515625 C 23.207031 -13.195312 25.132812 -16.378906 26.558594 -19.476562 L 40.046875 -19.476562 L 40.046875 -24.128906 L 13.152344 -24.128906 L 13.152344 -19.476562 L 20.523438 -19.476562 C 19.144531 -16 17.339844 -12.859375 16.628906 -11.894531 C 15.792969 -10.722656 15.078125 -9.96875 14.199219 -9.71875 C 14.828125 -8.335938 15.707031 -5.863281 15.960938 -4.773438 C 15.960938 -4.902344 16 -4.984375 16.085938 -5.109375 Z M 13.109375 -28.484375 C 11.394531 -29.949219 7.917969 -32.335938 5.65625 -33.929688 L 2.386719 -30.789062 C 4.691406 -28.988281 8.042969 -26.429688 9.59375 -24.921875 Z M 11.519531 -21.238281 L 1.507812 -21.238281 L 1.507812 -16.628906 L 6.617188 -16.628906 L 6.617188 -4.902344 C 4.816406 -4.019531 2.890625 -2.554688 1.089844 -0.753906 L 4.523438 4.105469 C 6.285156 1.589844 8.292969 -1.003906 9.59375 -1.003906 C 10.472656 -1.003906 11.894531 0.25 13.570312 1.171875 C 16.546875 2.847656 19.898438 3.351562 25.132812 3.351562 C 29.699219 3.351562 36.316406 3.101562 39.457031 2.933594 C 39.5 1.464844 40.378906 -1.132812 40.964844 -2.554688 C 36.609375 -1.925781 29.574219 -1.550781 25.34375 -1.550781 C 20.777344 -1.550781 17.046875 -1.757812 14.242188 -3.433594 C 13.109375 -4.105469 12.230469 -4.734375 11.519531 -5.152344 Z M 11.519531 -21.238281 "/></g></g></g><g fill="#ffb5b1" fill-opacity="1"><g transform="translate(298.020905, 116.389649)"><g><path d="M 11.644531 -4.609375 L 11.644531 -13.992188 L 30.242188 -13.992188 L 30.242188 -4.609375 Z M 30.242188 -27.941406 L 30.242188 -18.933594 L 11.644531 -18.933594 L 11.644531 -27.941406 Z M 6.492188 -32.964844 L 6.492188 3.140625 L 11.644531 3.140625 L 11.644531 0.417969 L 30.242188 0.417969 L 30.242188 3.058594 L 35.605469 3.058594 L 35.605469 -32.964844 Z M 6.492188 -32.964844 "/></g></g></g><g fill="#ffb5b1" fill-opacity="1"><g transform="translate(213.574098, 314.87067)"><g><path d="M 7.375 0.25 C 6.226562 0.25 5.234375 0.0625 4.390625 -0.3125 C 3.554688 -0.695312 2.863281 -1.222656 2.3125 -1.890625 C 1.757812 -2.566406 1.351562 -3.328125 1.09375 -4.171875 C 0.832031 -5.023438 0.703125 -5.921875 0.703125 -6.859375 C 0.703125 -7.796875 0.832031 -8.6875 1.09375 -9.53125 C 1.351562 -10.382812 1.757812 -11.140625 2.3125 -11.796875 C 2.863281 -12.460938 3.554688 -12.988281 4.390625 -13.375 C 5.234375 -13.757812 6.226562 -13.953125 7.375 -13.953125 C 9.144531 -13.953125 10.550781 -13.53125 11.59375 -12.6875 C 12.644531 -11.851562 13.3125 -10.757812 13.59375 -9.40625 L 10.75 -9.40625 C 10.519531 -10.113281 10.125 -10.660156 9.5625 -11.046875 C 9 -11.441406 8.265625 -11.640625 7.359375 -11.640625 C 6.484375 -11.640625 5.753906 -11.425781 5.171875 -11 C 4.585938 -10.582031 4.144531 -10.015625 3.84375 -9.296875 C 3.539062 -8.578125 3.390625 -7.769531 3.390625 -6.875 C 3.390625 -5.957031 3.546875 -5.132812 3.859375 -4.40625 C 4.171875 -3.6875 4.632812 -3.113281 5.25 -2.6875 C 5.875 -2.269531 6.65625 -2.0625 7.59375 -2.0625 C 8.664062 -2.0625 9.519531 -2.332031 10.15625 -2.875 C 10.789062 -3.425781 11.125 -4.238281 11.15625 -5.3125 L 8.109375 -5.3125 L 8.109375 -7.453125 L 13.71875 -7.453125 L 13.71875 0 L 11.359375 0 L 11.359375 -1.546875 C 10.878906 -0.859375 10.273438 -0.382812 9.546875 -0.125 C 8.828125 0.125 8.101562 0.25 7.375 0.25 Z M 7.375 0.25 "/></g></g></g><g fill="#ffb5b1" fill-opacity="1"><g transform="translate(228.420456, 314.87067)"><g><path d="M 7.34375 0.25 C 6.21875 0.25 5.234375 0.0625 4.390625 -0.3125 C 3.554688 -0.695312 2.867188 -1.21875 2.328125 -1.875 C 1.785156 -2.539062 1.378906 -3.300781 1.109375 -4.15625 C 0.835938 -5.007812 0.703125 -5.910156 0.703125 -6.859375 C 0.703125 -7.804688 0.835938 -8.707031 1.109375 -9.5625 C 1.378906 -10.414062 1.785156 -11.171875 2.328125 -11.828125 C 2.867188 -12.484375 3.554688 -13 4.390625 -13.375 C 5.234375 -13.757812 6.21875 -13.953125 7.34375 -13.953125 C 8.476562 -13.953125 9.460938 -13.757812 10.296875 -13.375 C 11.140625 -13 11.832031 -12.484375 12.375 -11.828125 C 12.925781 -11.171875 13.332031 -10.414062 13.59375 -9.5625 C 13.863281 -8.707031 14 -7.804688 14 -6.859375 C 14 -5.910156 13.863281 -5.007812 13.59375 -4.15625 C 13.332031 -3.300781 12.925781 -2.539062 12.375 -1.875 C 11.832031 -1.21875 11.140625 -0.695312 10.296875 -0.3125 C 9.460938 0.0625 8.476562 0.25 7.34375 0.25 Z M 7.34375 -2.0625 C 8.195312 -2.0625 8.914062 -2.257812 9.5 -2.65625 C 10.082031 -3.0625 10.53125 -3.625 10.84375 -4.34375 C 11.15625 -5.070312 11.3125 -5.910156 11.3125 -6.859375 C 11.3125 -7.804688 11.15625 -8.632812 10.84375 -9.34375 C 10.53125 -10.050781 10.082031 -10.601562 9.5 -11 C 8.914062 -11.40625 8.195312 -11.609375 7.34375 -11.609375 C 6.519531 -11.609375 5.8125 -11.40625 5.21875 -11 C 4.625 -10.601562 4.171875 -10.050781 3.859375 -9.34375 C 3.546875 -8.632812 3.390625 -7.804688 3.390625 -6.859375 C 3.390625 -5.910156 3.546875 -5.070312 3.859375 -4.34375 C 4.171875 -3.625 4.625 -3.0625 5.21875 -2.65625 C 5.8125 -2.257812 6.519531 -2.0625 7.34375 -2.0625 Z M 7.34375 -2.0625 "/></g></g></g><g fill="#ffb5b1" fill-opacity="1"><g transform="translate(243.284768, 314.87067)"><g><path d="M 7.34375 0.25 C 6.21875 0.25 5.234375 0.0625 4.390625 -0.3125 C 3.554688 -0.695312 2.867188 -1.21875 2.328125 -1.875 C 1.785156 -2.539062 1.378906 -3.300781 1.109375 -4.15625 C 0.835938 -5.007812 0.703125 -5.910156 0.703125 -6.859375 C 0.703125 -7.804688 0.835938 -8.707031 1.109375 -9.5625 C 1.378906 -10.414062 1.785156 -11.171875 2.328125 -11.828125 C 2.867188 -12.484375 3.554688 -13 4.390625 -13.375 C 5.234375 -13.757812 6.21875 -13.953125 7.34375 -13.953125 C 8.476562 -13.953125 9.460938 -13.757812 10.296875 -13.375 C 11.140625 -13 11.832031 -12.484375 12.375 -11.828125 C 12.925781 -11.171875 13.332031 -10.414062 13.59375 -9.5625 C 13.863281 -8.707031 14 -7.804688 14 -6.859375 C 14 -5.910156 13.863281 -5.007812 13.59375 -4.15625 C 13.332031 -3.300781 12.925781 -2.539062 12.375 -1.875 C 11.832031 -1.21875 11.140625 -0.695312 10.296875 -0.3125 C 9.460938 0.0625 8.476562 0.25 7.34375 0.25 Z M 7.34375 -2.0625 C 8.195312 -2.0625 8.914062 -2.257812 9.5 -2.65625 C 10.082031 -3.0625 10.53125 -3.625 10.84375 -4.34375 C 11.15625 -5.070312 11.3125 -5.910156 11.3125 -6.859375 C 11.3125 -7.804688 11.15625 -8.632812 10.84375 -9.34375 C 10.53125 -10.050781 10.082031 -10.601562 9.5 -11 C 8.914062 -11.40625 8.195312 -11.609375 7.34375 -11.609375 C 6.519531 -11.609375 5.8125 -11.40625 5.21875 -11 C 4.625 -10.601562 4.171875 -10.050781 3.859375 -9.34375 C 3.546875 -8.632812 3.390625 -7.804688 3.390625 -6.859375 C 3.390625 -5.910156 3.546875 -5.070312 3.859375 -4.34375 C 4.171875 -3.625 4.625 -3.0625 5.21875 -2.65625 C 5.8125 -2.257812 6.519531 -2.0625 7.34375 -2.0625 Z M 7.34375 -2.0625 "/></g></g></g><g fill="#ffb5b1" fill-opacity="1"><g transform="translate(258.14908, 314.87067)"><g><path d="M 5.203125 0 L 1.21875 0 L 1.21875 -13.703125 L 5.203125 -13.703125 C 7.523438 -13.703125 9.300781 -13.109375 10.53125 -11.921875 C 11.757812 -10.734375 12.375 -9.039062 12.375 -6.84375 C 12.375 -4.65625 11.753906 -2.96875 10.515625 -1.78125 C 9.285156 -0.59375 7.515625 0 5.203125 0 Z M 3.8125 -11.375 L 3.8125 -2.3125 L 5.171875 -2.3125 C 6.078125 -2.3125 6.878906 -2.453125 7.578125 -2.734375 C 8.273438 -3.015625 8.816406 -3.488281 9.203125 -4.15625 C 9.585938 -4.820312 9.78125 -5.71875 9.78125 -6.84375 C 9.78125 -7.90625 9.585938 -8.769531 9.203125 -9.4375 C 8.828125 -10.101562 8.296875 -10.59375 7.609375 -10.90625 C 6.921875 -11.21875 6.113281 -11.375 5.1875 -11.375 Z M 3.8125 -11.375 "/></g></g></g><g fill="#ffb5b1" fill-opacity="1"><g transform="translate(213.574098, 333.570803)"><g><path d="M 3.8125 0 L 1.21875 0 L 1.21875 -13.703125 L 10.359375 -13.703125 L 10.359375 -11.375 L 3.8125 -11.375 L 3.8125 -8 L 9.671875 -8 L 9.671875 -5.703125 L 3.8125 -5.703125 Z M 3.8125 0 "/></g></g></g><g fill="#ffb5b1" fill-opacity="1"><g transform="translate(224.560758, 333.570803)"><g><path d="M 7.34375 0.25 C 6.21875 0.25 5.234375 0.0625 4.390625 -0.3125 C 3.554688 -0.695312 2.867188 -1.21875 2.328125 -1.875 C 1.785156 -2.539062 1.378906 -3.300781 1.109375 -4.15625 C 0.835938 -5.007812 0.703125 -5.910156 0.703125 -6.859375 C 0.703125 -7.804688 0.835938 -8.707031 1.109375 -9.5625 C 1.378906 -10.414062 1.785156 -11.171875 2.328125 -11.828125 C 2.867188 -12.484375 3.554688 -13 4.390625 -13.375 C 5.234375 -13.757812 6.21875 -13.953125 7.34375 -13.953125 C 8.476562 -13.953125 9.460938 -13.757812 10.296875 -13.375 C 11.140625 -13 11.832031 -12.484375 12.375 -11.828125 C 12.925781 -11.171875 13.332031 -10.414062 13.59375 -9.5625 C 13.863281 -8.707031 14 -7.804688 14 -6.859375 C 14 -5.910156 13.863281 -5.007812 13.59375 -4.15625 C 13.332031 -3.300781 12.925781 -2.539062 12.375 -1.875 C 11.832031 -1.21875 11.140625 -0.695312 10.296875 -0.3125 C 9.460938 0.0625 8.476562 0.25 7.34375 0.25 Z M 7.34375 -2.0625 C 8.195312 -2.0625 8.914062 -2.257812 9.5 -2.65625 C 10.082031 -3.0625 10.53125 -3.625 10.84375 -4.34375 C 11.15625 -5.070312 11.3125 -5.910156 11.3125 -6.859375 C 11.3125 -7.804688 11.15625 -8.632812 10.84375 -9.34375 C 10.53125 -10.050781 10.082031 -10.601562 9.5 -11 C 8.914062 -11.40625 8.195312 -11.609375 7.34375 -11.609375 C 6.519531 -11.609375 5.8125 -11.40625 5.21875 -11 C 4.625 -10.601562 4.171875 -10.050781 3.859375 -9.34375 C 3.546875 -8.632812 3.390625 -7.804688 3.390625 -6.859375 C 3.390625 -5.910156 3.546875 -5.070312 3.859375 -4.34375 C 4.171875 -3.625 4.625 -3.0625 5.21875 -2.65625 C 5.8125 -2.257812 6.519531 -2.0625 7.34375 -2.0625 Z M 7.34375 -2.0625 "/></g></g></g><g fill="#ffb5b1" fill-opacity="1"><g transform="translate(239.425069, 333.570803)"><g><path d="M 9.3125 -5.9375 L 11.78125 0 L 9.03125 0 L 6.859375 -5.46875 L 3.8125 -5.46875 L 3.8125 0 L 1.21875 0 L 1.21875 -13.703125 L 7.125 -13.703125 C 7.988281 -13.703125 8.742188 -13.5625 9.390625 -13.28125 C 10.046875 -13 10.554688 -12.5625 10.921875 -11.96875 C 11.285156 -11.375 11.46875 -10.601562 11.46875 -9.65625 C 11.46875 -8.757812 11.273438 -7.992188 10.890625 -7.359375 C 10.515625 -6.722656 9.988281 -6.25 9.3125 -5.9375 Z M 6.765625 -11.375 L 3.8125 -11.375 L 3.8125 -7.734375 L 6.765625 -7.734375 C 7.460938 -7.734375 7.992188 -7.890625 8.359375 -8.203125 C 8.722656 -8.515625 8.90625 -8.96875 8.90625 -9.5625 C 8.90625 -10.15625 8.71875 -10.601562 8.34375 -10.90625 C 7.976562 -11.21875 7.453125 -11.375 6.765625 -11.375 Z M 6.765625 -11.375 "/></g></g></g><g fill="#ffb5b1" fill-opacity="1"><g transform="translate(251.937654, 333.570803)"><g><path d="M 6.953125 0 L 4.359375 0 L 4.359375 -11.375 L 0.171875 -11.375 L 0.171875 -13.703125 L 11.109375 -13.703125 L 11.109375 -11.375 L 6.953125 -11.375 Z M 6.953125 0 "/></g></g></g><g fill="#ffb5b1" fill-opacity="1"><g transform="translate(263.391064, 333.570803)"><g><path d="M 6.609375 0.25 C 5.304688 0.25 4.242188 0.03125 3.421875 -0.40625 C 2.609375 -0.84375 2.015625 -1.453125 1.640625 -2.234375 C 1.265625 -3.023438 1.078125 -3.9375 1.078125 -4.96875 L 1.078125 -13.703125 L 3.6875 -13.703125 L 3.6875 -4.96875 C 3.6875 -4.40625 3.773438 -3.898438 3.953125 -3.453125 C 4.128906 -3.015625 4.429688 -2.671875 4.859375 -2.421875 C 5.296875 -2.179688 5.878906 -2.0625 6.609375 -2.0625 C 7.347656 -2.0625 7.929688 -2.179688 8.359375 -2.421875 C 8.785156 -2.671875 9.085938 -3.015625 9.265625 -3.453125 C 9.441406 -3.898438 9.53125 -4.40625 9.53125 -4.96875 L 9.53125 -13.703125 L 12.140625 -13.703125 L 12.140625 -4.96875 C 12.140625 -3.9375 11.945312 -3.023438 11.5625 -2.234375 C 11.1875 -1.453125 10.59375 -0.84375 9.78125 -0.40625 C 8.96875 0.03125 7.910156 0.25 6.609375 0.25 Z M 6.609375 0.25 "/></g></g></g><g fill="#ffb5b1" fill-opacity="1"><g transform="translate(276.765346, 333.570803)"><g><path d="M 3.8125 0 L 1.21875 0 L 1.21875 -13.703125 L 4.125 -13.703125 L 9.75 -3.890625 L 9.75 -13.703125 L 12.328125 -13.703125 L 12.328125 0 L 9.40625 0 L 3.8125 -9.828125 Z M 3.8125 0 "/></g></g></g><g fill="#ffb5b1" fill-opacity="1"><g transform="translate(290.462771, 333.570803)"><g><path d="M 10.359375 0 L 1.21875 0 L 1.21875 -13.703125 L 10.359375 -13.703125 L 10.359375 -11.375 L 3.8125 -11.375 L 3.8125 -8 L 9.671875 -8 L 9.671875 -5.703125 L 3.8125 -5.703125 L 3.8125 -2.3125 L 10.359375 -2.3125 Z M 10.359375 0 "/></g></g></g></svg>